<svg width="25" height="25" viewBox="0 0 25 25" fill="none" xmlns="http://www.w3.org/2000/svg">
<g clip-path="url(#clip0_129_418)">
<rect x="9.56829" y="3.31914" width="13.6" height="2.6" rx="0.8" stroke="white" stroke-width="0.4"/>
<path d="M11.6439 5.1305C11.6088 5.1305 11.5788 5.11796 11.5537 5.09286C11.5286 5.06777 11.516 5.0377 11.516 5.00266C11.516 4.96763 11.5286 4.93756 11.5537 4.91246C11.5788 4.88737 11.6088 4.87482 11.6439 4.87482C11.6789 4.87482 11.709 4.88737 11.7341 4.91246C11.7591 4.93756 11.7717 4.96763 11.7717 5.00266C11.7717 5.02586 11.7658 5.04717 11.7539 5.06658C11.7426 5.086 11.7272 5.10162 11.7078 5.11346C11.6888 5.12482 11.6675 5.1305 11.6439 5.1305ZM12.1946 5.1305C12.1596 5.1305 12.1295 5.11796 12.1044 5.09286C12.0793 5.06777 12.0668 5.0377 12.0668 5.00266C12.0668 4.96763 12.0793 4.93756 12.1044 4.91246C12.1295 4.88737 12.1596 4.87482 12.1946 4.87482C12.2297 4.87482 12.2597 4.88737 12.2848 4.91246C12.3099 4.93756 12.3225 4.96763 12.3225 5.00266C12.3225 5.02586 12.3166 5.04717 12.3047 5.06658C12.2934 5.086 12.278 5.10162 12.2586 5.11346C12.2396 5.12482 12.2183 5.1305 12.1946 5.1305ZM12.7454 5.1305C12.7104 5.1305 12.6803 5.11796 12.6552 5.09286C12.6301 5.06777 12.6176 5.0377 12.6176 5.00266C12.6176 4.96763 12.6301 4.93756 12.6552 4.91246C12.6803 4.88737 12.7104 4.87482 12.7454 4.87482C12.7805 4.87482 12.8105 4.88737 12.8356 4.91246C12.8607 4.93756 12.8733 4.96763 12.8733 5.00266C12.8733 5.02586 12.8673 5.04717 12.8555 5.06658C12.8441 5.086 12.8288 5.10162 12.8093 5.11346C12.7904 5.12482 12.7691 5.1305 12.7454 5.1305ZM13.2962 5.1305C13.2612 5.1305 13.2311 5.11796 13.206 5.09286C13.1809 5.06777 13.1684 5.0377 13.1684 5.00266C13.1684 4.96763 13.1809 4.93756 13.206 4.91246C13.2311 4.88737 13.2612 4.87482 13.2962 4.87482C13.3312 4.87482 13.3613 4.88737 13.3864 4.91246C13.4115 4.93756 13.424 4.96763 13.424 5.00266C13.424 5.02586 13.4181 5.04717 13.4063 5.06658C13.3949 5.086 13.3795 5.10162 13.3601 5.11346C13.3412 5.12482 13.3199 5.1305 13.2962 5.1305ZM13.847 5.1305C13.8119 5.1305 13.7819 5.11796 13.7568 5.09286C13.7317 5.06777 13.7191 5.0377 13.7191 5.00266C13.7191 4.96763 13.7317 4.93756 13.7568 4.91246C13.7819 4.88737 13.8119 4.87482 13.847 4.87482C13.882 4.87482 13.9121 4.88737 13.9372 4.91246C13.9623 4.93756 13.9748 4.96763 13.9748 5.00266C13.9748 5.02586 13.9689 5.04717 13.9571 5.06658C13.9457 5.086 13.9303 5.10162 13.9109 5.11346C13.892 5.12482 13.8707 5.1305 13.847 5.1305Z" fill="white"/>
<rect x="2.56829" y="2.31914" width="4.6" height="4.6" rx="0.8" stroke="white" stroke-width="0.4"/>
<rect x="3.36829" y="3.11914" width="3" height="3" rx="0.5" fill="white"/>
<rect x="9.56829" y="11.3191" width="13.6" height="2.6" rx="0.8" stroke="white" stroke-width="0.4"/>
<path d="M11.6439 13.1305C11.6088 13.1305 11.5788 13.118 11.5537 13.0929C11.5286 13.0678 11.516 13.0377 11.516 13.0027C11.516 12.9676 11.5286 12.9376 11.5537 12.9125C11.5788 12.8874 11.6088 12.8748 11.6439 12.8748C11.6789 12.8748 11.709 12.8874 11.7341 12.9125C11.7591 12.9376 11.7717 12.9676 11.7717 13.0027C11.7717 13.0259 11.7658 13.0472 11.7539 13.0666C11.7426 13.086 11.7272 13.1016 11.7078 13.1135C11.6888 13.1248 11.6675 13.1305 11.6439 13.1305ZM12.1946 13.1305C12.1596 13.1305 12.1295 13.118 12.1044 13.0929C12.0793 13.0678 12.0668 13.0377 12.0668 13.0027C12.0668 12.9676 12.0793 12.9376 12.1044 12.9125C12.1295 12.8874 12.1596 12.8748 12.1946 12.8748C12.2297 12.8748 12.2597 12.8874 12.2848 12.9125C12.3099 12.9376 12.3225 12.9676 12.3225 13.0027C12.3225 13.0259 12.3166 13.0472 12.3047 13.0666C12.2934 13.086 12.278 13.1016 12.2586 13.1135C12.2396 13.1248 12.2183 13.1305 12.1946 13.1305ZM12.7454 13.1305C12.7104 13.1305 12.6803 13.118 12.6552 13.0929C12.6301 13.0678 12.6176 13.0377 12.6176 13.0027C12.6176 12.9676 12.6301 12.9376 12.6552 12.9125C12.6803 12.8874 12.7104 12.8748 12.7454 12.8748C12.7805 12.8748 12.8105 12.8874 12.8356 12.9125C12.8607 12.9376 12.8733 12.9676 12.8733 13.0027C12.8733 13.0259 12.8673 13.0472 12.8555 13.0666C12.8441 13.086 12.8288 13.1016 12.8093 13.1135C12.7904 13.1248 12.7691 13.1305 12.7454 13.1305ZM13.2962 13.1305C13.2612 13.1305 13.2311 13.118 13.206 13.0929C13.1809 13.0678 13.1684 13.0377 13.1684 13.0027C13.1684 12.9676 13.1809 12.9376 13.206 12.9125C13.2311 12.8874 13.2612 12.8748 13.2962 12.8748C13.3312 12.8748 13.3613 12.8874 13.3864 12.9125C13.4115 12.9376 13.424 12.9676 13.424 13.0027C13.424 13.0259 13.4181 13.0472 13.4063 13.0666C13.3949 13.086 13.3795 13.1016 13.3601 13.1135C13.3412 13.1248 13.3199 13.1305 13.2962 13.1305ZM13.847 13.1305C13.8119 13.1305 13.7819 13.118 13.7568 13.0929C13.7317 13.0678 13.7191 13.0377 13.7191 13.0027C13.7191 12.9676 13.7317 12.9376 13.7568 12.9125C13.7819 12.8874 13.8119 12.8748 13.847 12.8748C13.882 12.8748 13.9121 12.8874 13.9372 12.9125C13.9623 12.9376 13.9748 12.9676 13.9748 13.0027C13.9748 13.0259 13.9689 13.0472 13.9571 13.0666C13.9457 13.086 13.9303 13.1016 13.9109 13.1135C13.892 13.1248 13.8707 13.1305 13.847 13.1305Z" fill="white"/>
<rect x="2.56829" y="10.3191" width="4.6" height="4.6" rx="0.8" stroke="white" stroke-width="0.4"/>
<rect x="3.36829" y="11.1191" width="3" height="3" rx="0.5" fill="white"/>
<rect x="9.56829" y="19.3191" width="13.6" height="2.6" rx="0.8" stroke="white" stroke-width="0.4"/>
<path d="M11.6439 21.1305C11.6088 21.1305 11.5788 21.118 11.5537 21.0929C11.5286 21.0678 11.516 21.0377 11.516 21.0027C11.516 20.9676 11.5286 20.9376 11.5537 20.9125C11.5788 20.8874 11.6088 20.8748 11.6439 20.8748C11.6789 20.8748 11.709 20.8874 11.7341 20.9125C11.7591 20.9376 11.7717 20.9676 11.7717 21.0027C11.7717 21.0259 11.7658 21.0472 11.7539 21.0666C11.7426 21.086 11.7272 21.1016 11.7078 21.1135C11.6888 21.1248 11.6675 21.1305 11.6439 21.1305ZM12.1946 21.1305C12.1596 21.1305 12.1295 21.118 12.1044 21.0929C12.0793 21.0678 12.0668 21.0377 12.0668 21.0027C12.0668 20.9676 12.0793 20.9376 12.1044 20.9125C12.1295 20.8874 12.1596 20.8748 12.1946 20.8748C12.2297 20.8748 12.2597 20.8874 12.2848 20.9125C12.3099 20.9376 12.3225 20.9676 12.3225 21.0027C12.3225 21.0259 12.3166 21.0472 12.3047 21.0666C12.2934 21.086 12.278 21.1016 12.2586 21.1135C12.2396 21.1248 12.2183 21.1305 12.1946 21.1305ZM12.7454 21.1305C12.7104 21.1305 12.6803 21.118 12.6552 21.0929C12.6301 21.0678 12.6176 21.0377 12.6176 21.0027C12.6176 20.9676 12.6301 20.9376 12.6552 20.9125C12.6803 20.8874 12.7104 20.8748 12.7454 20.8748C12.7805 20.8748 12.8105 20.8874 12.8356 20.9125C12.8607 20.9376 12.8733 20.9676 12.8733 21.0027C12.8733 21.0259 12.8673 21.0472 12.8555 21.0666C12.8441 21.086 12.8288 21.1016 12.8093 21.1135C12.7904 21.1248 12.7691 21.1305 12.7454 21.1305ZM13.2962 21.1305C13.2612 21.1305 13.2311 21.118 13.206 21.0929C13.1809 21.0678 13.1684 21.0377 13.1684 21.0027C13.1684 20.9676 13.1809 20.9376 13.206 20.9125C13.2311 20.8874 13.2612 20.8748 13.2962 20.8748C13.3312 20.8748 13.3613 20.8874 13.3864 20.9125C13.4115 20.9376 13.424 20.9676 13.424 21.0027C13.424 21.0259 13.4181 21.0472 13.4063 21.0666C13.3949 21.086 13.3795 21.1016 13.3601 21.1135C13.3412 21.1248 13.3199 21.1305 13.2962 21.1305ZM13.847 21.1305C13.8119 21.1305 13.7819 21.118 13.7568 21.0929C13.7317 21.0678 13.7191 21.0377 13.7191 21.0027C13.7191 20.9676 13.7317 20.9376 13.7568 20.9125C13.7819 20.8874 13.8119 20.8748 13.847 20.8748C13.882 20.8748 13.9121 20.8874 13.9372 20.9125C13.9623 20.9376 13.9748 20.9676 13.9748 21.0027C13.9748 21.0259 13.9689 21.0472 13.9571 21.0666C13.9457 21.086 13.9303 21.1016 13.9109 21.1135C13.892 21.1248 13.8707 21.1305 13.847 21.1305Z" fill="white"/>
<rect x="2.56829" y="18.3191" width="4.6" height="4.6" rx="0.8" stroke="white" stroke-width="0.4"/>
<rect x="3.36829" y="19.1191" width="3" height="3" rx="0.5" fill="white"/>
<path d="M22.3683 1.11914L1.36829 23.1191" stroke="white" stroke-width="0.4" stroke-linecap="round"/>
<path d="M1.36829 1.11914L22.3683 23.1191" stroke="white" stroke-width="0.4" stroke-linecap="round"/>
</g>
<defs>
<clipPath id="clip0_129_418">
<rect width="24" height="24" fill="white" transform="translate(0.368286 0.119141)"/>
</clipPath>
</defs>
</svg>
